#!OML:ASF F:\VICON\USERDATA\Patient Classification 1\PLAYGROUND\JustinFriday\JustinFriday.ASF
:FULLY-SPECIFIED
:DEGREES
3396
root 34.2271 27.9967 -10.3509 219.431 -100.284 -199.361
lowerback 40.4955 2.68827 4.35371
upperback 15.8464 3.02269 5.46862
thorax -1.91925 0.559285 2.51087
lowerneck 4.45127 -7.86859 -9.36666
upperneck -28.5667 -9.78896 14.8379
head -8.19129 -5.86726 7.5085
rclavicle 6.99722e-014 7.79236e-014
rhumerus 35.6298 -7.90911 -52.7412
rradius 99.5049
rwrist 9.41077
rhand -14.9541 -18.0917
rfingers 7.12502
rthumb 11.209 -407.772
lclavicle 6.99722e-014 7.79236e-014
lhumerus 53.9933 -7.35452 66.4673
lradius 87.3416
lwrist -25.8852
lhand 6.45617 -8.69045
lfingers 7.12502
lthumb 31.7579 18.5638
rfemur -27.2779 -5.71951 33.0325
rtibia 23.3135
rfoot -5.85077 -4.49613
rtoes 20.1383
lfemur -83.948 12.2847 -20.7745
ltibia 96.5243
lfoot -23.3344 -19.1109
ltoes 5.1488
3397
root 34.1601 28.0047 -10.3415 218.66 -100.024 -198.328
lowerback 40.1556 2.67947 3.65349
upperback 15.9445 2.73725 5.25502
thorax -1.73951 0.409111 2.74394
lowerneck 4.18608 -7.50503 -8.92671
upperneck -28.464 -9.22593 14.7141
head -8.2181 -5.62162 7.35536
rclavicle 2.38542e-014 -1.35174e-014
rhumerus 35.3869 -7.21018 -53.1723
rradius 99.8048
rwrist 9.70749
rhand -16.2903 -17.2804
rfingers 7.12502
rthumb 9.92014 -407.027
lclavicle 2.38542e-014 -1.35174e-014
lhumerus 53.2008 -7.0005 66.0911
lradius 87.7171
lwrist -26.8773
lhand 6.40303 -8.92161
lfingers 7.12502
lthumb 31.7073 18.3426
rfemur -27.2047 -5.54658 32.7041
rtibia 23.1113
rfoot -5.74486 -4.61666
rtoes 19.8455
lfemur -83.6881 12.2099 -21.0893
ltibia 95.7286
lfoot -23.2885 -19.0159
ltoes 5.39926
3398
root 34.0865 28.0284 -10.3153 216.505 -99.7805 -196.352
lowerback 40.4486 2.4227 2.97333
upperback 15.9444 2.17716 4.83326
thorax -1.8269 0.12729 2.83968
lowerneck 3.99992 -7.04176 -8.56049
upperneck -28.0814 -8.47226 14.8441
head -8.16242 -5.29536 7.27406
rclavicle -5.56597e-014 -4.90998e-014
rhumerus 35.1983 -6.12411 -53.9519
rradius 100.152
rwrist 9.93839
rhand -17.0656 -16.6034
rfingers 7.12502
rthumb 9.17206 -406.384
lclavicle -5.56597e-014 -4.90998e-014
lhumerus 51.7803 -6.5243 65.147
lradius 88.7541
lwrist -26.9911
lhand 5.5065 -7.59626
lfingers 7.12502
lthumb 30.853 19.8331
rfemur -26.7244 -5.59566 32.0806
rtibia 23.1232
rfoot -5.93261 -4.62797
rtoes 20.725
lfemur -82.6351 11.7189 -21.0477
ltibia 94.8341
lfoot -21.5049 -20.7499
ltoes 11.9297
3399
root 34.0157 28.0236 -10.2952 215.654 -99.678 -195.201
lowerback 40.0721 2.60559 3.16588
upperback 16.0026 2.46596 5.09907
thorax -1.66442 0.26812 2.92318
lowerneck 3.57112 -7.41417 -11.2787
upperneck -27.4587 -8.89678 16.6871
head -7.524 -5.41175 8.27921
rclavicle -4.53229e-014 -4.33351e-014
rhumerus 34.1489 -6.56798 -52.9749
rradius 100.646
rwrist 10.0433
rhand -17.542 -16.5919
rfingers 7.12502
rthumb 8.71232 -406.392
lclavicle -4.53229e-014 -4.33351e-014
lhumerus 51.2203 -7.3947 65.791
lradius 89.8663
lwrist -27.2054
lhand 4.2925 -7.34196
lfingers 7.12502
lthumb 29.6949 20.3001
rfemur -26.8382 -5.36588 31.7458
rtibia 23.2558
rfoot -6.06966 -4.75605
rtoes 21.9225
lfemur -82.3969 11.4621 -21.5247
ltibia 94.2126
lfoot -22.5619 -19.5689
ltoes 7.69839
3400
root 33.9394 28.0228 -10.2727 215.607 -99.5877 -194.994
lowerback 39.7978 2.74983 3.29894
upperback 16.0357 2.68605 5.31923
thorax -1.55841 0.372446 3.01353
lowerneck 4.41931 -7.37001 -9.01898
upperneck -28.6787 -9.12794 14.4092
head -8.3665 -5.53418 7.29896
rclavicle -3.81667e-014 -3.97569e-015
rhumerus 33.2223 -6.71115 -52.2407
rradius 101.118
rwrist 10.0097
rhand -17.8664 -16.5198
rfingers 7.12502
rthumb 8.39926 -406.333
lclavicle -3.81667e-014 -3.97569e-015
lhumerus 50.6385 -8.18203 66.4227
lradius 90.5386
lwrist -27.4363
lhand 3.02527 -7.68638
lfingers 7.12502
lthumb 28.4847 20.1648
rfemur -26.777 -5.05783 31.5201
rtibia 23.3888
rfoot -5.98346 -4.94938
rtoes 22.1509
lfemur -81.8866 11.2151 -21.5395
ltibia 93.5997
lfoot -22.5714 -19.9429
ltoes 8.51976
3401
root 33.8625 28.0225 -10.2454 215.082 -99.4118 -194.342
lowerback 39.6163 2.8492 3.30904
upperback 16.0554 2.81095 5.51664
thorax -1.49893 0.424351 3.17555
lowerneck 4.79259 -7.32389 -7.62234
upperneck -29.3321 -9.31753 12.7319
head -8.84948 -5.59336 6.58852
rclavicle -3.33958e-014 -2.54444e-014
rhumerus 32.4741 -6.64989 -51.5628
rradius 101.515
rwrist 9.9032
rhand -17.8032 -16.113
rfingers 7.12502
rthumb 8.46027 -405.924
lclavicle -3.33958e-014 -2.54444e-014
lhumerus 50.1194 -8.8564 67.1832
lradius 90.8448
lwrist -27.5125
lhand 1.97417 -7.94809
lfingers 7.12502
lthumb 27.4799 20.067
rfemur -26.7449 -4.99028 31.211
rtibia 23.6384
rfoot -5.85616 -4.9289
rtoes 21.0543
lfemur -81.1957 10.9125 -21.554
ltibia 93.0236
lfoot -22.9702 -19.6584
ltoes 7.93748
3402
root 33.7845 28.0177 -10.2173 215.856 -99.3726 -195.059
lowerback 39.628 2.77116 3.36402
upperback 16.0622 2.7298 5.54173
thorax -1.48933 0.383091 3.20191
lowerneck 4.84179 -7.11408 -6.91047
upperneck -29.5999 -9.11145 12.0048
head -9.07193 -5.49078 6.24243
rclavicle -3.18055e-015 1.27222e-014
rhumerus 32.03 -6.22694 -51.4942
rradius 101.821
rwrist 9.98969
rhand -17.712 -15.6804
rfingers 7.12502
rthumb 8.54832 -405.487
lclavicle -3.18055e-015 1.27222e-014
lhumerus 49.1266 -8.92282 67.387
lradius 91.5487
lwrist -27.3438
lhand 1.47619 -8.17189
lfingers 7.12502
lthumb 27.0035 19.918
rfemur -26.632 -4.96434 31.2244
rtibia 23.8096
rfoot -5.89489 -4.93473
rtoes 20.2485
lfemur -80.4328 10.6466 -21.2418
ltibia 92.4858
lfoot -23.1557 -19.4443
ltoes 7.9063
